<?xml version="1.0" encoding="UTF-8" standalone="no"?>
<!-- Created with Inkscape (http://www.inkscape.org/) -->

<svg
   xmlns:dc="http://purl.org/dc/elements/1.1/"
   xmlns:cc="http://creativecommons.org/ns#"
   xmlns:rdf="http://www.w3.org/1999/02/22-rdf-syntax-ns#"
   xmlns:svg="http://www.w3.org/2000/svg"
   xmlns="http://www.w3.org/2000/svg"
   xmlns:sodipodi="http://sodipodi.sourceforge.net/DTD/sodipodi-0.dtd"
   xmlns:inkscape="http://www.inkscape.org/namespaces/inkscape"
   width="156.2709mm"
   height="141.92122mm"
   viewBox="0 0 156.2709 141.92122"
   version="1.1"
   id="svg8"
   inkscape:version="0.92.4 (5da689c313, 2019-01-14)"
   sodipodi:docname="absolutely nothing can deter me.svg">
  <defs
     id="defs2" />
  <sodipodi:namedview
     id="base"
     pagecolor="#ffffff"
     bordercolor="#666666"
     borderopacity="1.0"
     inkscape:pageopacity="0.0"
     inkscape:pageshadow="2"
     inkscape:zoom="0.98994949"
     inkscape:cx="220.08185"
     inkscape:cy="293.5419"
     inkscape:document-units="mm"
     inkscape:current-layer="layer1"
     showgrid="false"
     inkscape:window-width="1920"
     inkscape:window-height="983"
     inkscape:window-x="0"
     inkscape:window-y="27"
     inkscape:window-maximized="1"
     fit-margin-top="0"
     fit-margin-left="0"
     fit-margin-right="0"
     fit-margin-bottom="0" />
  <metadata
     id="metadata5">
    <rdf:RDF>
      <cc:Work
         rdf:about="">
        <dc:format>image/svg+xml</dc:format>
        <dc:type
           rdf:resource="http://purl.org/dc/dcmitype/StillImage" />
        <dc:title></dc:title>
      </cc:Work>
    </rdf:RDF>
  </metadata>
  <g
     inkscape:label="Layer 1"
     inkscape:groupmode="layer"
     id="layer1"
     transform="translate(-16.35351,-93.703499)">
    <rect
       style="fill:#00002b;stroke:none;stroke-width:0.84158015;stroke-linecap:round;stroke-linejoin:round;stroke-miterlimit:4;stroke-dasharray:none"
       id="rect4665"
       width="156.2709"
       height="141.92122"
       x="16.35351"
       y="93.703499" />
    <path
       style="fill:#ffdd55;stroke:none;stroke-width:0.26458332px;stroke-linecap:butt;stroke-linejoin:miter;stroke-opacity:1"
       d="m 69.547617,158.66071 c -6.370243,0.76206 -12.340294,3.41742 -17.892924,6.51381 -4.549161,3.11791 -8.843292,6.93654 -11.37155,11.92231 -0.530418,2.36183 0.835348,5.31658 3.36484,5.76362 1.744074,0.26712 3.000088,-1.41052 3.375912,-2.92455 0.592562,-1.06062 1.740858,-1.78386 2.605674,-2.65544 5.363078,-4.68271 11.681273,-8.32532 18.494525,-10.4152 0.65863,-0.12904 1.322369,-0.20736 1.990488,-0.26708"
       id="path4586"
       inkscape:connector-curvature="0" />
    <path
       style="fill:#ffdd55;stroke:none;stroke-width:0.26458332px;stroke-linecap:butt;stroke-linejoin:miter;stroke-opacity:1"
       d="m 107.15625,186.44196 c 4.39144,5.08543 5.90244,11.95941 6.11767,18.51812 0.12554,3.3435 -0.0398,6.69001 -0.29148,10.02392 -0.69032,1.75938 -1.07376,4.22091 0.63017,5.53796 2.24017,1.4896 5.34523,0.5219 7.15966,-1.2201 1.61546,-1.47714 1.9992,-3.95336 1.12956,-5.92181 -1.30657,-7.88566 -1.34856,-16.04963 -4.09586,-23.64205 -0.80773,-2.55902 -1.27144,-5.36436 -3.08976,-7.45378"
       id="path4592"
       inkscape:connector-curvature="0" />
    <path
       inkscape:connector-curvature="0"
       id="path4631"
       d="m 84.779658,188.33184 c -4.391442,5.08543 -5.902442,11.95941 -6.117672,18.51812 -0.12554,3.3435 0.0398,6.69001 0.29148,10.02392 0.69032,1.75938 1.07376,4.22091 -0.63017,5.53796 -2.24017,1.4896 -5.34523,0.5219 -7.15966,-1.2201 -1.615459,-1.47714 -1.999199,-3.95336 -1.12956,-5.92181 1.30657,-7.88566 1.34856,-16.04963 4.09586,-23.64205 0.80773,-2.55902 1.27144,-5.36436 3.08976,-7.45378"
       style="fill:#ffdd55;stroke:none;stroke-width:0.26458332px;stroke-linecap:butt;stroke-linejoin:miter;stroke-opacity:1" />
    <path
       inkscape:connector-curvature="0"
       id="path4633"
       d="m 117.23801,156.85008 c 6.37024,0.76206 12.34029,3.41742 17.89292,6.51381 4.54916,3.11791 8.84329,6.93654 11.37155,11.92231 0.53042,2.36183 -0.83535,5.31658 -3.36484,5.76362 -1.74407,0.26712 -3.00009,-1.41052 -3.37591,-2.92455 -0.59256,-1.06062 -1.74086,-1.78386 -2.60568,-2.65544 -5.36307,-4.68271 -11.68127,-8.32532 -18.49452,-10.4152 -0.65863,-0.12904 -1.32237,-0.20736 -1.99049,-0.26708"
       style="fill:#ffdd55;stroke:none;stroke-width:0.26458332px;stroke-linecap:butt;stroke-linejoin:miter;stroke-opacity:1" />
    <path
       style="fill:#ffdd55;stroke-width:0.26458332"
       d="m 78.350252,109.40345 c -8.290983,-0.24112 -17.749366,8.93263 -25.822195,17.98288 -0.12042,0.135 -0.206724,0.25421 -0.260967,0.35864 a 0.38257607,0.38257607 0 0 1 0.04548,-0.0563 c 4.654431,-4.76727 10.906884,-7.49057 17.150374,-9.31261 3.036477,-0.89194 6.11465,-1.60977 9.185486,-2.31252 a 0.38253823,0.38253823 0 0 1 0.06459,-0.01 0.38253823,0.38253823 0 0 1 0.105418,0.75603 c -3.068841,0.70228 -6.129739,1.41685 -9.138459,2.30063 a 0.38253823,0.38253823 0 0 1 -0.0021,0 c -6.17888,1.80302 -12.301016,4.48656 -16.818093,9.11314 a 0.38257607,0.38257607 0 0 1 -0.172083,0.10128 c 3.665707,0.49564 26.705832,-8.11034 22.846665,-5.564 -6.573991,4.33762 -0.233119,6.46028 2.853574,14.52263 l 5.747453,15.01252 12.372888,-9.3803 C 92.896758,118.16475 86.138752,109.62995 78.350252,109.40345 Z m -26.146206,18.54977 c -0.0064,0.0721 0.0081,0.13423 0.04651,0.18552 a 0.38257607,0.38257607 0 0 1 -0.04651,-0.18552 z"
       id="path3724"
       inkscape:connector-curvature="0" />
    <path
       inkscape:connector-curvature="0"
       style="fill:#ffdd55;stroke:none;stroke-width:0.26458332px;stroke-linecap:butt;stroke-linejoin:miter;stroke-opacity:1"
       d="m 96.896853,138.26066 c -5.768253,1.01537 -11.900852,1.9937 -17.079579,4.82762 l 13.920597,24.64397 z"
       id="path3775" />
    <path
       inkscape:connector-curvature="0"
       style="fill:#d40000;stroke:none;stroke-width:0.26458332px;stroke-linecap:butt;stroke-linejoin:miter;stroke-opacity:1"
       d="m 96.896853,138.26066 -3.158982,29.47159 -13.920597,-24.64397 c -1.516269,0.82973 -2.961862,1.79719 -4.278807,2.99775 -6.288141,6.29373 -7.451619,16.10462 -5.403289,24.4383 1.34321,5.98717 3.732006,12.45391 9.267134,15.76337 6.17293,3.86893 13.903642,3.80218 20.792018,2.25723 6.50756,-0.81631 13.5775,-3.11127 17.26923,-8.93382 1.93046,-2.94986 2.21208,-6.60755 1.60662,-9.99991 -0.59964,-6.48077 -0.84469,-13.32352 -4.07624,-19.14508 -2.16507,-3.0936 -4.92151,-5.75944 -7.80056,-8.18348 -2.93817,-2.28998 -6.50446,-4.01925 -10.296527,-4.02198 z"
       id="path3761" />
  </g>
</svg>
